<svg width="164" height="158" viewBox="0 0 164 158" fill="none" xmlns="http://www.w3.org/2000/svg">
<path d="M33.2709 57.8C28.7909 57.8 24.5776 57.1333 20.6309 55.8C16.7376 54.4133 13.2976 52.4667 10.3109 49.96C7.3776 47.4 5.08427 44.36 3.43094 40.84C1.7776 37.2667 0.950938 33.32 0.950938 29C0.950938 24.8933 1.80427 21.1067 3.51094 17.64C5.27094 14.1733 7.64427 11.16 10.6309 8.6C13.6176 6.04 17.0576 4.06666 20.9509 2.68C24.8443 1.24 28.9509 0.519998 33.2709 0.519998C36.8976 0.519998 40.3643 0.999998 43.6709 1.96C46.9776 2.86667 49.9643 4.04 52.6309 5.48C55.3509 6.86666 57.5109 8.33333 59.1109 9.88L53.9909 17.16C52.0709 15.56 50.0176 14.1467 47.8309 12.92C45.6443 11.6933 43.2709 10.7333 40.7109 10.04C38.2043 9.34667 35.4576 9 32.4709 9C29.6443 9 26.8709 9.48 24.1509 10.44C21.4843 11.3467 19.0576 12.68 16.8709 14.44C14.6843 16.1467 12.9509 18.2533 11.6709 20.76C10.3909 23.2133 9.75094 25.96 9.75094 29C9.75094 32.36 10.4176 35.32 11.7509 37.88C13.0843 40.3867 14.8976 42.4933 17.1909 44.2C19.4843 45.9067 22.0709 47.2133 24.9509 48.12C27.8309 48.9733 30.8176 49.4 33.9109 49.4C37.1109 49.4 39.9643 49 42.4709 48.2C44.9776 47.3467 47.2176 46.3067 49.1909 45.08C51.1643 43.8533 52.9509 42.6533 54.5509 41.48L58.7109 48.68C57.2176 49.9067 55.1643 51.24 52.5509 52.68C49.9909 54.12 47.0576 55.3467 43.7509 56.36C40.4976 57.32 37.0043 57.8 33.2709 57.8ZM95.7866 57V0.999996H104.267L129.787 32.6H126.747L152.267 0.999996H160.747V57H152.107V33.24C152.107 28.8133 152.213 24.6533 152.427 20.76C152.64 16.8667 153.067 12.8933 153.707 8.84L154.587 12.12L130.907 40.92H125.627L101.947 12.12L102.827 8.84C103.467 12.8933 103.893 16.8667 104.107 20.76C104.32 24.6533 104.427 28.8133 104.427 33.24V57H95.7866ZM7.14594 157V101H15.6259L41.1459 132.6H38.1059L63.6259 101H72.1059V157H63.4659V133.24C63.4659 128.813 63.5726 124.653 63.7859 120.76C63.9993 116.867 64.4259 112.893 65.0659 108.84L65.9459 112.12L42.2659 140.92H36.9859L13.3059 112.12L14.1859 108.84C14.8259 112.893 15.2526 116.867 15.4659 120.76C15.6793 124.653 15.7859 128.813 15.7859 133.24V157H7.14594ZM136.888 157.8C132.888 157.8 129.182 157.4 125.768 156.6C122.408 155.8 119.315 154.6 116.488 153C113.715 151.4 111.182 149.373 108.888 146.92L114.328 139.72C117.795 143.293 121.315 145.907 124.888 147.56C128.515 149.213 132.542 150.04 136.968 150.04C139.742 150.04 142.408 149.72 144.968 149.08C147.528 148.387 149.635 147.373 151.288 146.04C152.942 144.653 153.768 142.92 153.768 140.84C153.768 139.507 153.315 138.413 152.408 137.56C151.502 136.707 150.302 136.013 148.808 135.48C147.368 134.947 145.795 134.52 144.088 134.2C142.382 133.88 140.728 133.64 139.128 133.48C137.582 133.32 136.275 133.187 135.208 133.08C131.635 132.6 128.382 131.96 125.448 131.16C122.568 130.307 120.088 129.24 118.008 127.96C115.982 126.68 114.408 125.107 113.288 123.24C112.222 121.373 111.688 119.213 111.688 116.76C111.688 114.147 112.302 111.827 113.528 109.8C114.808 107.72 116.568 105.987 118.808 104.6C121.102 103.16 123.742 102.067 126.728 101.32C129.768 100.573 133.048 100.2 136.568 100.2C140.302 100.2 143.715 100.573 146.808 101.32C149.902 102.067 152.648 103.187 155.048 104.68C157.502 106.12 159.528 107.907 161.128 110.04L155.368 116.36C153.875 114.547 152.142 113.027 150.168 111.8C148.195 110.52 146.035 109.56 143.688 108.92C141.395 108.28 138.942 107.96 136.328 107.96C133.448 107.96 130.862 108.28 128.568 108.92C126.275 109.56 124.462 110.467 123.128 111.64C121.795 112.76 121.128 114.147 121.128 115.8C121.128 117.24 121.528 118.467 122.328 119.48C123.182 120.493 124.355 121.347 125.848 122.04C127.342 122.68 129.128 123.213 131.208 123.64C133.342 124.067 135.688 124.44 138.248 124.76C141.448 125.133 144.542 125.613 147.528 126.2C150.515 126.787 153.182 127.613 155.528 128.68C157.875 129.693 159.742 131.08 161.128 132.84C162.515 134.6 163.208 136.893 163.208 139.72C163.208 143.347 162.115 146.52 159.928 149.24C157.742 151.96 154.675 154.067 150.728 155.56C146.835 157.053 142.222 157.8 136.888 157.8Z" fill="black"/>
</svg>
