<svg width="512" height="512" viewBox="0 0 512 512" fill="none" xmlns="http://www.w3.org/2000/svg">
<path d="M128.569 207.05C117.089 207.05 106.293 205.342 96.1793 201.925C86.2026 198.372 77.3876 193.383 69.7343 186.96C62.2176 180.4 56.3409 172.61 52.1043 163.59C47.8676 154.433 45.7493 144.32 45.7493 133.25C45.7493 122.727 47.9359 113.023 52.3093 104.14C56.8193 95.2567 62.9009 87.535 70.5543 80.975C78.2076 74.415 87.0226 69.3583 96.9993 65.805C106.976 62.115 117.499 60.27 128.569 60.27C137.863 60.27 146.746 61.5 155.219 63.96C163.693 66.2833 171.346 69.29 178.179 72.98C185.149 76.5333 190.684 80.2917 194.784 84.255L181.664 102.91C176.744 98.81 171.483 95.1883 165.879 92.045C160.276 88.9017 154.194 86.4417 147.634 84.665C141.211 82.8883 134.173 82 126.519 82C119.276 82 112.169 83.23 105.199 85.69C98.3659 88.0133 92.1476 91.43 86.5443 95.94C80.9409 100.313 76.4993 105.712 73.2193 112.135C69.9393 118.422 68.2993 125.46 68.2993 133.25C68.2993 141.86 70.0076 149.445 73.4243 156.005C76.8409 162.428 81.4876 167.827 87.3643 172.2C93.2409 176.573 99.8693 179.922 107.249 182.245C114.629 184.432 122.283 185.525 130.209 185.525C138.409 185.525 145.721 184.5 152.144 182.45C158.568 180.263 164.308 177.598 169.364 174.455C174.421 171.312 178.999 168.237 183.099 165.23L193.759 183.68C189.933 186.823 184.671 190.24 177.974 193.93C171.414 197.62 163.898 200.763 155.424 203.36C147.088 205.82 138.136 207.05 128.569 207.05ZM288.766 205V61.5H310.496L375.891 142.475H368.101L433.496 61.5H455.226V205H433.086V144.115C433.086 132.772 433.359 122.112 433.906 112.135C434.452 102.158 435.546 91.9767 437.186 81.59L439.441 89.995L378.761 163.795H365.231L304.551 89.995L306.806 81.59C308.446 91.9767 309.539 102.158 310.086 112.135C310.632 122.112 310.906 132.772 310.906 144.115V205H288.766ZM61.624 461V317.5H83.354L148.749 398.475H140.959L206.354 317.5H228.084V461H205.944V400.115C205.944 388.772 206.217 378.112 206.764 368.135C207.311 358.158 208.404 347.977 210.044 337.59L212.299 345.995L151.619 419.795H138.089L77.409 345.995L79.664 337.59C81.304 347.977 82.3973 358.158 82.944 368.135C83.4906 378.112 83.764 388.772 83.764 400.115V461H61.624ZM394.089 463.05C383.839 463.05 374.341 462.025 365.594 459.975C356.984 457.925 349.057 454.85 341.814 450.75C334.707 446.65 328.216 441.457 322.339 435.17L336.279 416.72C345.162 425.877 354.182 432.573 363.339 436.81C372.632 441.047 382.951 443.165 394.294 443.165C401.401 443.165 408.234 442.345 414.794 440.705C421.354 438.928 426.752 436.332 430.989 432.915C435.226 429.362 437.344 424.92 437.344 419.59C437.344 416.173 436.182 413.372 433.859 411.185C431.536 408.998 428.461 407.222 424.634 405.855C420.944 404.488 416.912 403.395 412.539 402.575C408.166 401.755 403.929 401.14 399.829 400.73C395.866 400.32 392.517 399.978 389.784 399.705C380.627 398.475 372.291 396.835 364.774 394.785C357.394 392.598 351.039 389.865 345.709 386.585C340.516 383.305 336.484 379.273 333.614 374.49C330.881 369.707 329.514 364.172 329.514 357.885C329.514 351.188 331.086 345.243 334.229 340.05C337.509 334.72 342.019 330.278 347.759 326.725C353.636 323.035 360.401 320.233 368.054 318.32C375.844 316.407 384.249 315.45 393.269 315.45C402.836 315.45 411.582 316.407 419.509 318.32C427.436 320.233 434.474 323.103 440.624 326.93C446.911 330.62 452.104 335.198 456.204 340.665L441.444 356.86C437.617 352.213 433.176 348.318 428.119 345.175C423.062 341.895 417.527 339.435 411.514 337.795C405.637 336.155 399.351 335.335 392.654 335.335C385.274 335.335 378.646 336.155 372.769 337.795C366.892 339.435 362.246 341.758 358.829 344.765C355.412 347.635 353.704 351.188 353.704 355.425C353.704 359.115 354.729 362.258 356.779 364.855C358.966 367.452 361.972 369.638 365.799 371.415C369.626 373.055 374.204 374.422 379.534 375.515C385.001 376.608 391.014 377.565 397.574 378.385C405.774 379.342 413.701 380.572 421.354 382.075C429.007 383.578 435.841 385.697 441.854 388.43C447.867 391.027 452.651 394.58 456.204 399.09C459.757 403.6 461.534 409.477 461.534 416.72C461.534 426.013 458.732 434.145 453.129 441.115C447.526 448.085 439.667 453.483 429.554 457.31C419.577 461.137 407.756 463.05 394.089 463.05Z" fill="black"/>
</svg>
